# xmcd CD database file
#
# Track frame offsets:
#	150
#	2860
#	11960
#	25717
#	41710
#	47135
#	49665
#	52345
#	60632
#	71742
#	81260
#	93107
#	101135
#	103682
#	106405
#	116425
#	129172
#	141217
#	152252
#	154830
#	157547
#	167427
#	178805
#	190562
#	198307
#	206287
#
# Disc length: 2782 seconds
#
# Revision: 0
# Processed by: cddbd v1.5.2PL0 Copyright (c) Steve Scherf et al.
# Submitted via: CDex 1.51
#
DISCID=510adc1a
DTITLE=Jim Reeves - Jim Reeves and Friends - Radio Days, vol.1_3
DYEAR=1998
DGENRE=Country
TTITLE0=Beaumont Rag - Intro
TTITLE1=Blue boy
TTITLE2=If heartache is the fashion
TTITLE3=Harvey June Van: The butcher boy
TTITLE4=Streets of Laredo
TTITLE5=Beaumont Rag - Outro
TTITLE6=Beaumont Rag - Intro
TTITLE7=Billy Bayou
TTITLE8=I´m beginning to forget you
TTITLE9=Wanda Jones: You´re making a fool out of me
TTITLE10=Mexican Joe
TTITLE11=Home
TTITLE12=Beaumont Rag - Outro
TTITLE13=Beaumont Rag - Intro
TTITLE14=Blue boy
TTITLE15=He´ll have to go
TTITLE16=Carl Butler: I know what it means to be lonesome
TTITLE17=Honey won´t you please come home
TTITLE18=Beaumont Rag - Outro
TTITLE19=Beaumont Rag - Intro
TTITLE20=I know one
TTITLE21=He´ll have to go
TTITLE22=Anita Kerr Singers: Forever
TTITLE23=Tommy Jackson: Sally Goodin
TTITLE24=Billy Bayou
TTITLE25=Beaumont Rag - Outro
EXTD=YEAR: 1998
EXTT0=
EXTT1=
EXTT2=
EXTT3=
EXTT4=
EXTT5=
EXTT6=
EXTT7=
EXTT8=
EXTT9=
EXTT10=
EXTT11=
EXTT12=
EXTT13=
EXTT14=
EXTT15=
EXTT16=
EXTT17=
EXTT18=
EXTT19=
EXTT20=
EXTT21=
EXTT22=
EXTT23=
EXTT24=
EXTT25=
PLAYORDER=
